<?xml version="1.0" encoding="UTF-8" standalone="no"?>
<!-- Uploaded to: SVG Repo, www.svgrepo.com, Transformed by: SVG Repo Mixer Tools -->

<svg
   xmlns:dc="http://purl.org/dc/elements/1.1/"
   xmlns:cc="http://creativecommons.org/ns#"
   xmlns:rdf="http://www.w3.org/1999/02/22-rdf-syntax-ns#"
   xmlns:svg="http://www.w3.org/2000/svg"
   xmlns="http://www.w3.org/2000/svg"
   xmlns:sodipodi="http://sodipodi.sourceforge.net/DTD/sodipodi-0.dtd"
   xmlns:inkscape="http://www.inkscape.org/namespaces/inkscape"
   width="800px"
   height="800px"
   viewBox="0 0 24 24"
   fill="none"
   version="1.1"
   id="svg15"
   sodipodi:docname="profitToExecute.svg"
   inkscape:version="0.92.5 (2060ec1f9f, 2020-04-08)">
  <metadata
     id="metadata21">
    <rdf:RDF>
      <cc:Work
         rdf:about="">
        <dc:format>image/svg+xml</dc:format>
        <dc:type
           rdf:resource="http://purl.org/dc/dcmitype/StillImage" />
        <dc:title></dc:title>
      </cc:Work>
    </rdf:RDF>
  </metadata>
  <defs
     id="defs19" />
  <sodipodi:namedview
     pagecolor="#000000"
     bordercolor="#666666"
     borderopacity="1"
     objecttolerance="10"
     gridtolerance="10"
     guidetolerance="10"
     inkscape:pageopacity="0"
     inkscape:pageshadow="2"
     inkscape:window-width="2564"
     inkscape:window-height="1571"
     id="namedview17"
     showgrid="false"
     inkscape:zoom="0.59"
     inkscape:cx="694.67764"
     inkscape:cy="515.24629"
     inkscape:window-x="0"
     inkscape:window-y="54"
     inkscape:window-maximized="0"
     inkscape:current-layer="svg15" />
  <g
     id="SVGRepo_bgCarrier"
     stroke-width="0" />
  <g
     id="SVGRepo_tracerCarrier"
     stroke-linecap="round"
     stroke-linejoin="round" />
  <g
     style="fill:none"
     id="g106"
     transform="matrix(0.27542372,0,0,0.27542372,2.2627125,4.2966107)">
    <g
       id="SVGRepo_bgCarrier-3"
       style="stroke-width:0" />
    <g
       id="SVGRepo_tracerCarrier-6"
       style="stroke-linecap:round;stroke-linejoin:round" />
    <g
       id="SVGRepo_iconCarrier-7">
      <path
         id="path82"
         d="M 16,8 8,16"
         inkscape:connector-curvature="0"
         style="stroke:#ffffff;stroke-width:2;stroke-linecap:round;stroke-linejoin:round" />
      <path
         id="path84"
         d="m 9,9.01001 v -0.01"
         inkscape:connector-curvature="0"
         style="stroke:#ffffff;stroke-width:2;stroke-linecap:round;stroke-linejoin:round" />
      <path
         id="path86"
         d="M 15,15.01 V 15"
         inkscape:connector-curvature="0"
         style="stroke:#ffffff;stroke-width:2;stroke-linecap:round;stroke-linejoin:round" />
      <path
         id="path88"
         d="m 3,12 c 0,-7.4115 1.5885,-9 9,-9 7.4115,0 9,1.5885 9,9 0,7.4115 -1.5885,9 -9,9 -7.4115,0 -9,-1.5885 -9,-9 z"
         inkscape:connector-curvature="0"
         style="stroke:#ffffff;stroke-width:2" />
    </g>
  </g>
  <g
     style="fill:none"
     id="g215">
    <g
       id="SVGRepo_bgCarrier-5"
       style="stroke-width:0" />
    <g
       id="SVGRepo_tracerCarrier-3"
       style="stroke-linecap:round;stroke-linejoin:round" />
    <g
       id="SVGRepo_iconCarrier-5">
      <path
         id="path188"
         stroke-miterlimit="10"
         d="m 12,14.5 c 1.3807,0 2.5,-1.1193 2.5,-2.5 0,-1.3807 -1.1193,-2.5 -2.5,-2.5 -1.3807,0 -2.5,1.1193 -2.5,2.5 0,1.3807 1.1193,2.5 2.5,2.5 z"
         inkscape:connector-curvature="0"
         style="stroke:#ffffff;stroke-width:1.5;stroke-linecap:round;stroke-linejoin:round;stroke-miterlimit:10" />
      <path
         id="path190"
         stroke-miterlimit="10"
         d="m 18.5,9.5 v 5"
         inkscape:connector-curvature="0"
         style="stroke:#ffffff;stroke-width:1.5;stroke-linecap:round;stroke-linejoin:round;stroke-miterlimit:10" />
      <path
         id="path192"
         stroke-miterlimit="10"
         d="M 9,18 C 9,18.75 8.79001,19.46 8.42001,20.06 7.73001,21.22 6.46,22 5,22 3.54,22 2.26999,21.22 1.57999,20.06 1.20999,19.46 1,18.75 1,18 c 0,-2.21 1.79,-4 4,-4 2.21,0 4,1.79 4,4 z"
         inkscape:connector-curvature="0"
         style="stroke:#ffffff;stroke-width:1.5;stroke-linecap:round;stroke-linejoin:round;stroke-miterlimit:10" />
      <path
         id="path194"
         d="m 3.44141,17.9995 0.98999,0.99 2.13,-1.97"
         inkscape:connector-curvature="0"
         style="stroke:#ffffff;stroke-width:1.5;stroke-linecap:round;stroke-linejoin:round" />
      <path
         id="path196"
         stroke-miterlimit="10"
         d="M 2,15.3 V 9 C 2,5.5 4,4 7,4 h 10 c 3,0 5,1.5 5,5 v 6 c 0,3.5 -2,5 -5,5 H 8.5"
         inkscape:connector-curvature="0"
         style="stroke:#ffffff;stroke-width:1.5;stroke-linecap:round;stroke-linejoin:round;stroke-miterlimit:10" />
    </g>
  </g>
</svg>
